<svg height="512pt" viewBox="0 -29 512 512" width="512pt" xmlns="http://www.w3.org/2000/svg"><g fill="#ffcb5d"><path d="m131.839844 7.5h-75.757813c-11.277343 0-20.417969 9.140625-20.417969 20.417969v27.410156l58.296876 19.015625 58.296874-19.015625v-27.410156c0-11.277344-9.140624-20.417969-20.417968-20.417969zm0 0"/><path d="m380.160156 7.5h75.757813c11.277343 0 20.417969 9.140625 20.417969 20.417969v27.410156l-58.296876 19.015625-58.296874-19.015625v-27.410156c0-11.277344 9.140624-20.417969 20.417968-20.417969zm0 0"/><path d="m293.878906 7.5h-75.757812c-11.277344 0-20.417969 9.140625-20.417969 20.417969v27.410156l58.296875 19.011719 58.296875-19.011719v-27.410156c0-11.277344-9.140625-20.417969-20.417969-20.417969zm0 0"/></g><path d="m476.335938 55.328125h-440.671876c-15.554687 0-28.164062 12.609375-28.164062 28.160156v102.289063l248.5 34.496094 248.5-34.496094v-102.289063c0-15.550781-12.609375-28.160156-28.164062-28.160156zm0 0" fill="#ffe675"/><path d="m47.5 185.777344v-102.289063c0-15.550781 12.609375-28.160156 28.164062-28.160156h-40c-15.554687 0-28.164062 12.609375-28.164062 28.160156v102.289063l248.5 34.496094 20-2.777344zm0 0" fill="#ffcb5d"/><path d="m256 287.117188-248.5 29.109374v102.285157c0 15.554687 12.609375 28.164062 28.164062 28.164062h440.671876c15.554687 0 28.164062-12.609375 28.164062-28.164062v-102.285157zm0 0" fill="#6dd1e0"/><path d="m47.5 418.511719v-102.285157l228.5-26.765624-20-2.34375-248.5 29.109374v102.285157c0 15.554687 12.609375 28.164062 28.164062 28.164062h40c-15.554687 0-28.164062-12.609375-28.164062-28.164062zm0 0" fill="#34bed2"/><path d="m7.5 185.777344h497v130.449218h-497zm0 0" fill="#ff9ec0"/><path d="m7.5 185.777344h40v130.449218h-40zm0 0" fill="#ff66a8"/><path d="m512 83.492188c0-17.09375-12.089844-31.410157-28.164062-34.863282v-20.710937c0-15.394531-12.523438-27.917969-27.914063-27.917969h-75.761719c-15.394531 0-27.917968 12.523438-27.917968 27.917969v19.910156h-30.445313v-19.910156c0-15.394531-12.523437-27.917969-27.917969-27.917969h-75.757812c-15.394532 0-27.917969 12.523438-27.917969 27.917969v19.910156h-30.445313v-19.910156c0-15.394531-12.523437-27.917969-27.917968-27.917969h-75.757813c-15.394531 0-27.917969 12.523438-27.917969 27.917969v20.710937c-16.074218 3.453125-28.164062 17.769532-28.164062 34.863282v335.019531c0 19.664062 16 35.664062 35.664062 35.664062h440.675782c19.664062 0 35.660156-16 35.660156-35.664062zm-306.796875-55.574219c0-7.121094 5.792969-12.917969 12.917969-12.917969h75.757812c7.125 0 12.917969 5.796875 12.917969 12.917969v19.910156h-101.59375zm162.039063 0c0-7.121094 5.792968-12.917969 12.917968-12.917969h75.761719c7.121094 0 12.914063 5.796875 12.914063 12.917969v19.910156h-101.59375zm-324.078126 0c0-7.121094 5.792969-12.917969 12.917969-12.917969h75.757813c7.125 0 12.917968 5.796875 12.917968 12.917969v19.910156h-101.59375zm-28.164062 55.574219c0-11.394532 9.269531-20.664063 20.664062-20.664063h440.675782c11.390625 0 20.660156 9.269531 20.660156 20.664063v94.785156h-388.414062c-4.035157 0-7.5 3.453125-7.5 7.5 0 4.03125 3.40625 7.5 7.5 7.5h388.414062v115.449218s-69.398438 0-69.414062 0c-4.03125 0-7.5 3.394532-7.5 7.5 0 4.011719 3.429687 7.5 7.5 7.5h69.414062v94.785157c0 11.394531-9.269531 20.664062-20.660156 20.664062h-440.675782c-11.394531 0-20.664062-9.269531-20.664062-20.664062v-94.785157h382.585938c3.777343 0 7.082031-2.980468 7.460937-6.734374.441406-4.3125-3.117187-8.265626-7.460937-8.265626h-382.585938v-115.449218h63.585938c4.039062 0 7.5-3.402344 7.5-7.5 0-4.042969-3.453126-7.5-7.5-7.5h-63.585938zm0 0"/><path d="m165.539062 262.316406c4.144532 0 7.5-3.355468 7.5-7.5v-16.371094c0-4.140624-3.355468-7.5-7.5-7.5-4.140624 0-7.5 3.359376-7.5 7.5v16.371094c0 4.144532 3.359376 7.5 7.5 7.5zm0 0"/><path d="m346.460938 262.316406c4.140624 0 7.5-3.355468 7.5-7.5v-16.371094c0-4.140624-3.359376-7.5-7.5-7.5-4.144532 0-7.5 3.359376-7.5 7.5v16.371094c0 4.144532 3.355468 7.5 7.5 7.5zm0 0"/><path d="m256 271.054688c10.867188 0 21.0625-4.535157 27.972656-12.441407 2.726563-3.117187 2.410156-7.855469-.710937-10.582031-3.117188-2.726562-7.855469-2.410156-10.582031.710938-4.0625 4.648437-10.140626 7.3125-16.679688 7.3125-6.535156 0-12.617188-2.664063-16.679688-7.3125-2.726562-3.121094-7.464843-3.4375-10.585937-.710938-3.117187 2.726562-3.433594 7.460938-.707031 10.582031 6.910156 7.90625 17.109375 12.441407 27.972656 12.441407zm0 0"/></svg>